<svg width="45" height="46" viewBox="0 0 45 46" fill="none" xmlns="http://www.w3.org/2000/svg">
<g id="icon">
<rect id="Rectangle 3123" y="0.350586" width="45" height="45" fill="#EC6149"/>
<path id="Vector" d="M13 24.1006C14.375 24.1006 15.5 22.9756 15.5 21.6006C15.5 20.2256 14.375 19.1006 13 19.1006C11.625 19.1006 10.5 20.2256 10.5 21.6006C10.5 22.9756 11.625 24.1006 13 24.1006ZM14.4125 25.4756C13.95 25.4006 13.4875 25.3506 13 25.3506C11.7625 25.3506 10.5875 25.6131 9.525 26.0756C8.6 26.4756 8 27.3756 8 28.3881V30.3506H13.625V28.3381C13.625 27.3006 13.9125 26.3256 14.4125 25.4756ZM33 24.1006C34.375 24.1006 35.5 22.9756 35.5 21.6006C35.5 20.2256 34.375 19.1006 33 19.1006C31.625 19.1006 30.5 20.2256 30.5 21.6006C30.5 22.9756 31.625 24.1006 33 24.1006ZM38 28.3881C38 27.3756 37.4 26.4756 36.475 26.0756C35.4125 25.6131 34.2375 25.3506 33 25.3506C32.5125 25.3506 32.05 25.4006 31.5875 25.4756C32.0875 26.3256 32.375 27.3006 32.375 28.3381V30.3506H38V28.3881ZM28.3 24.9131C26.8375 24.2631 25.0375 23.7881 23 23.7881C20.9625 23.7881 19.1625 24.2756 17.7 24.9131C16.35 25.5131 15.5 26.8631 15.5 28.3381V30.3506H30.5V28.3381C30.5 26.8631 29.65 25.5131 28.3 24.9131ZM23 15.3506C20.925 15.3506 19.25 17.0256 19.25 19.1006C19.25 21.1756 20.925 22.8506 23 22.8506C25.075 22.8506 26.75 21.1756 26.75 19.1006C26.75 17.0256 25.075 15.3506 23 15.3506Z" fill="#AADCDD"/>
</g>
</svg>
