<svg width="45" height="46" viewBox="0 0 45 46" fill="none" xmlns="http://www.w3.org/2000/svg">
<g id="icon">
<rect id="Rectangle 3123" y="0.350586" width="45" height="45" fill="#EAFC71"/>
<path id="Vector" d="M22.7673 21.0061C19.9641 20.285 19.0626 19.5395 19.0626 18.3784C19.0626 17.0461 20.3099 16.1173 22.3969 16.1173C24.595 16.1173 25.41 17.1561 25.4841 18.6839H28.2133C28.1269 16.5817 26.8302 14.6506 24.2492 14.0273V11.3506H20.5445V13.9906C18.1488 14.5039 16.2223 16.0439 16.2223 18.4028C16.2223 21.2261 18.581 22.6317 22.0264 23.4506C25.1137 24.1839 25.7311 25.2595 25.7311 26.3961C25.7311 27.2395 25.126 28.5839 22.3969 28.5839C19.8529 28.5839 18.8527 27.4595 18.7168 26.0173H16C16.1482 28.6939 18.1734 30.1973 20.5445 30.6984V33.3506H24.2492V30.7228C26.6573 30.2706 28.5714 28.8895 28.5714 26.3839C28.5714 22.9128 25.5706 21.7273 22.7673 21.0061Z" fill="#AADCDD"/>
</g>
</svg>
