<svg width="45" height="46" viewBox="0 0 45 46" fill="none" xmlns="http://www.w3.org/2000/svg">
<g id="icon">
<rect id="Rectangle 3123" y="0.350586" width="45" height="45" fill="#1C473C"/>
<path id="Vector" d="M33 20.6578H25.0895L28.2863 17.3676C25.1011 14.2174 19.9441 14.1007 16.7589 17.2509C13.5737 20.4128 13.5737 25.5115 16.7589 28.6734C19.9441 31.8352 25.1011 31.8352 28.2863 28.6734C29.8731 27.1099 30.6665 25.2781 30.6665 22.968H33C33 25.2781 31.9733 28.2767 29.9198 30.3068C25.8245 34.3671 19.1741 34.3671 15.0788 30.3068C10.9952 26.2582 10.9602 19.6777 15.0555 15.6291C19.1507 11.5805 25.7195 11.5805 29.8148 15.6291L33 12.3506V20.6578ZM23.0827 18.1843V23.143L27.1663 25.5698L26.3262 26.9816L21.3325 24.018V18.1843H23.0827Z" fill="#EC6149"/>
</g>
</svg>
